<?xml version="1.0" encoding="utf-8"?>
<!-- Generator: Adobe Illustrator 25.2.3, SVG Export Plug-In . SVG Version: 6.00 Build 0)  -->
<svg version="1.1" id="Layer_1" xmlns="http://www.w3.org/2000/svg" xmlns:xlink="http://www.w3.org/1999/xlink" x="0px" y="0px"
	 viewBox="0 0 620.7 336.3" style="enable-background:new 0 0 620.7 336.3;" xml:space="preserve">
<style type="text/css">
	.st0{fill:#E13027;}
	.st1{fill:#F89623;}
</style>
<g>
	<g>
		<g>
			<path class="st0" d="M20.5,284.3h24.8v4.8H25.7v18.2h17.7v4.8H25.7v18.8h20v4.8H20.5V284.3z"/>
			<path class="st0" d="M79.2,330.1l3.2-4.1c3.2,3.1,6.7,5.5,11.1,5.5c5.4,0,8.9-3.8,8.9-8.5v-0.1c0-3.6-1.5-6.5-9.1-10.8
				c-9.4-5.4-12-9.4-12-15.3v-0.1c0-7.3,5.6-13,13.8-13c4.2,0,8.7,1.5,12.5,5.1l-3.1,4c-2.8-2.6-6-4.4-9.5-4.4
				c-5.1,0-8.4,3.5-8.4,7.8v0.1c0,4,1.8,6.5,9.8,11.2c9.3,5.5,11.4,9.6,11.4,15.3v0.1c0,7.6-6,13.4-14,13.4
				C88.6,336.3,83.8,334.6,79.2,330.1z"/>
			<path class="st0" d="M140.2,330.1l3.2-4.1c3.1,3.1,6.8,5.5,11.1,5.5c5.3,0,8.9-3.8,8.9-8.5v-0.1c0-3.6-1.5-6.5-9.1-10.8
				c-9.4-5.4-12-9.4-12-15.3v-0.1c0-7.3,5.6-13,13.8-13c4.2,0,8.6,1.5,12.5,5.1l-3.2,4c-2.8-2.6-6-4.4-9.5-4.4
				c-5.1,0-8.4,3.5-8.4,7.8v0.1c0,4,1.8,6.5,9.8,11.2c9.3,5.5,11.4,9.6,11.4,15.3v0.1c0,7.6-6,13.4-14,13.4
				C149.6,336.3,144.8,334.6,140.2,330.1z"/>
			<path class="st0" d="M205.7,284.3h24.8v4.8h-19.7v18.2h17.7v4.8h-17.7v18.8h19.9v4.8h-25.1v-51.4H205.7z"/>
			<path class="st0" d="M268,284.3h5l20.6,39.5v-39.5h5v51.3h-4.5L273,295v40.6h-5V284.3z"/>
			<path class="st0" d="M346,289.1h-11.2v-4.8h27.5v4.8h-11.2v46.6h-5.2v-46.6H346z"/>
			<path class="st0" d="M399,284.3h5.1v51.3H399V284.3z"/>
			<path class="st0" d="M456.1,284h5.4l15.2,51.6h-5.3l-3.9-13.4h-17.6l-3.9,13.4h-5.1L456.1,284z M466.2,317.6l-7.4-26l-7.6,26
				H466.2z"/>
			<path class="st0" d="M513.1,284.3h5.1v46.6h18v4.8h-23.1V284.3z"/>
			<path class="st0" d="M568.6,330.1l3.2-4.1c3.2,3.1,6.8,5.5,11.1,5.5c5.3,0,8.9-3.8,8.9-8.5v-0.1c0-3.6-1.5-6.5-9.1-10.8
				c-9.4-5.4-12-9.4-12-15.3v-0.1c0-7.3,5.6-13,13.8-13c4.2,0,8.7,1.5,12.5,5.1l-3.2,4c-2.8-2.6-6-4.4-9.5-4.4
				c-5.1,0-8.4,3.5-8.4,7.8v0.1c0,4,1.9,6.5,9.8,11.2c9.3,5.5,11.4,9.6,11.4,15.3v0.1c0,7.6-6,13.4-14,13.4
				C578,336.3,573.2,334.6,568.6,330.1z"/>
		</g>
		<g>
			<path class="st1" d="M70.9,33.8L18.1,213.4h17.6l13.5-46.7h61.2l13.5,46.7h18.6L89.6,33.8H70.9z M53.9,150.7l26.2-90.4l25.8,90.3
				L53.9,150.7L53.9,150.7z"/>
			<polygon class="st1" points="209.3,128.5 166.7,34.8 147.8,34.8 147.8,213.4 165.1,213.4 165.1,70.5 208.8,165.5 209.5,165.5 
				253.4,70.3 253.4,213.4 271,213.4 271,34.8 251.9,34.8 			"/>
			<path class="st1" d="M400.5,33.5h-39v178.6h17.9v-63h20.2c34.7-0.5,58.9-21.4,58.9-58.2v-0.5C458.4,54.7,435.7,33.5,400.5,33.5z
				 M440.3,91.2c0,25.5-15,41.6-40.8,41.6h-20.2V50.1h20.4c25.2,0,40.6,14.3,40.6,40.8V91.2z"/>
			<polygon class="st1" points="574.3,35.1 531.7,128.8 489.1,35.1 470.2,35.1 470.2,213.7 487.6,213.7 487.6,70.9 531.2,165.8 
				532,165.8 575.8,70.6 575.8,213.7 593.4,213.7 593.4,35.1 			"/>
			<rect x="312.1" class="st1" width="12.3" height="247.2"/>
		</g>
	</g>
</g>
<g>
	<path class="st0" d="M609.1,289.6L609.1,289.6c0-3.2,2.6-5.8,5.8-5.8c3.2,0,5.8,2.6,5.8,5.8v0c0,3.1-2.6,5.8-5.8,5.8
		C611.6,295.3,609.1,292.7,609.1,289.6z M619.9,289.5L619.9,289.5c0-2.9-2.2-5.2-5.1-5.2c-2.9,0-5.1,2.4-5.1,5.2v0
		c0,2.8,2.2,5.1,5.1,5.1C617.7,294.7,619.9,292.3,619.9,289.5z M612.6,286.5h2.7c1.3,0,2.3,0.6,2.3,1.9c0,1-0.6,1.6-1.4,1.8l1.6,2.2
		h-1.4l-1.4-2h-1.2v2h-1.1V286.5z M615.1,289.4c0.8,0,1.2-0.4,1.2-1c0-0.6-0.4-1-1.2-1h-1.4v1.9H615.1z"/>
</g>
</svg>
