<?xml version="1.0" encoding="utf-8"?>
<!-- Generator: Adobe Illustrator 24.2.1, SVG Export Plug-In . SVG Version: 6.00 Build 0)  -->
<svg version="1.1" id="Layer_1" xmlns="http://www.w3.org/2000/svg" xmlns:xlink="http://www.w3.org/1999/xlink" x="0px" y="0px"
	 viewBox="0 0 767.4 291.5" style="enable-background:new 0 0 767.4 291.5;" xml:space="preserve">
<style type="text/css">
	.st0{fill:#575757;}
</style>
<g>
	<g>
		<g>
			<path class="st0" d="M289.5,60.7c-24.6,0-42.4,19.1-42.4,45.7c2.4-4.4,9.8-22.2,34.6-22.2c36.6,0,84.7,57.5,94,109.6
				C375.7,125.6,333.6,60.7,289.5,60.7z"/>
			<path class="st0" d="M286.3,104.4c-13.3,2.7-18.3,19.5-18.3,28.1c1.3-3.2,6.3-11.3,17-14.4c10.5-3,37.9-0.9,56.1,20.2
				C325.1,113.9,304.4,100.7,286.3,104.4z"/>
			<path class="st0" d="M478,60.7c-44,0-86.1,64.9-86.1,133c9.2-52.1,57.4-109.6,94-109.6c24.8,0,32.2,17.8,34.6,22.2
				C520.4,79.8,502.6,60.7,478,60.7z"/>
			<path class="st0" d="M481.3,104.4c-18.1-3.6-38.8,9.5-54.8,33.9c18.2-21.1,45.6-23.3,56.1-20.2c10.6,3.1,15.7,11.2,17,14.4
				C499.6,123.8,494.6,107.1,481.3,104.4z"/>
			<path class="st0" d="M395,133c4.9-10.9,9-32.7,9-63.6c0-33.2-7.1-69.4-20.1-69.4c-13.1,0-20.1,36.1-20.1,69.4
				c0,30.9,4.1,52.7,8.9,63.6c-5.2-41.7-0.5-90,11.2-90S400.1,91.2,395,133z"/>
		</g>
		<g>
			<g>
				<path class="st0" d="M26.2,277.3c4.6,1.2,8.9,2.1,14.6,2.1c14.9,0.1,17.9-5.3,17.7-14.8V225h12.7v40.3
					c-0.2,19.1-9.7,25.4-28.9,25.4c-6.1,0-13-0.6-16.1-1.4V277.3z"/>
				<path class="st0" d="M105.5,225h58.2v10.9h-45.6V251h39.2v10.9h-39.2V279h46.6v10.9h-59.3V225z"/>
				<path class="st0" d="M262.9,262.1c0,20.9-13.3,29.5-34.5,29.5S194,283,194,262.1V225h12.7v36.2c0,10.7,3.8,19.5,21.8,19.5
					s21.8-8.8,21.8-19.5V225h12.7V262.1z"/>
				<path class="st0" d="M297.3,225h13.4l43.4,46.9V225h12.1v64.9h-11.6l-45.2-48.6v48.6h-12.1V225z"/>
				<path class="st0" d="M400.6,225h58.2v10.9h-45.6V251h39.2v10.9h-39.2V279h46.6v10.9h-59.3V225z"/>
				<path class="st0" d="M539.7,244.7c-2.1-5.8-7.3-10.8-22.8-10.8c-8.6,0-17.2,2.1-17.2,8.1c0,2.8,1.6,5.7,14.6,7.3l15.4,2.3
					c14.6,2.2,23.1,7.9,23.1,18.8c0,15.4-14.6,21.1-32,21.1c-27.9,0-34.7-13.8-36.2-18.7l12.2-3.8c2.3,4.7,7.1,11.6,24.3,11.6
					c10.4,0,18.9-3.4,18.9-9c0-4.2-4.8-7-14.1-8.1l-15.5-2.1c-15-2.1-23.4-8.6-23.4-18.5c0-19.5,25.3-19.5,30.3-19.5
					c28,0,32.8,12.9,34.4,17.4L539.7,244.7z"/>
				<path class="st0" d="M633.1,244.7c-2.1-5.8-7.3-10.8-22.8-10.8c-8.6,0-17.2,2.1-17.2,8.1c0,2.8,1.6,5.7,14.6,7.3l15.4,2.3
					c14.6,2.2,23.1,7.9,23.1,18.8c0,15.4-14.6,21.1-32,21.1c-27.9,0-34.7-13.8-36.2-18.7l12.2-3.8c2.3,4.7,7.1,11.6,24.3,11.6
					c10.4,0,18.9-3.4,18.9-9c0-4.2-4.8-7-14.1-8.1l-15.5-2.1c-15-2.1-23.4-8.6-23.4-18.5c0-19.5,25.3-19.5,30.3-19.5
					c28,0,32.8,12.9,34.4,17.4L633.1,244.7z"/>
				<path class="st0" d="M676,225h58.2v10.9h-45.6V251h39.2v10.9h-39.2V279h46.6v10.9H676V225z"/>
			</g>
		</g>
	</g>
</g>
<g>
	<g>
		<path class="st0" d="M753.1,226.9h-2.7v-1.4h7v1.4h-2.7v7.2h-1.5V226.9z"/>
		<path class="st0" d="M759,225.5h1.6l2.6,4.1l2.6-4.1h1.6v8.6h-1.5V228l-2.7,4h0l-2.7-4v6.1H759V225.5z"/>
	</g>
</g>
</svg>
