<svg width="274" height="194" viewBox="0 0 274 194" fill="none" xmlns="http://www.w3.org/2000/svg">
<path d="M42.5 60.7C17.9 60.7 0.0999756 79.8 0.0999756 106.4C2.49998 102 9.89998 84.1999 34.7 84.1999C71.3 84.1999 119.4 141.7 128.7 193.8C128.7 125.6 86.6 60.7 42.5 60.7Z" fill="#575757"/>
<path d="M39.3 104.4C26 107.1 21 123.9 21 132.5C22.3 129.3 27.3 121.2 38 118.1C48.5 115.1 75.9 117.2 94.1 138.3C78.1 113.9 57.4 100.7 39.3 104.4Z" fill="#575757"/>
<path d="M231 60.7C187 60.7 144.9 125.6 144.9 193.7C154.1 141.6 202.3 84.0999 238.9 84.0999C263.7 84.0999 271.1 101.9 273.5 106.3C273.4 79.8 255.6 60.7 231 60.7Z" fill="#575757"/>
<path d="M234.3 104.4C216.2 100.8 195.5 113.9 179.5 138.3C197.7 117.2 225.1 115 235.6 118.1C246.2 121.2 251.3 129.3 252.6 132.5C252.6 123.8 247.6 107.1 234.3 104.4Z" fill="#575757"/>
<path d="M148 133C152.9 122.1 157 100.3 157 69.4C157 36.2 149.9 0 136.9 0C123.8 0 116.8 36.1 116.8 69.4C116.8 100.3 120.9 122.1 125.7 133C120.5 91.3 125.2 43 136.9 43C148.6 43 153.1 91.2 148 133Z" fill="#575757"/>
</svg>
